<mxfile host="app.diagrams.net" modified="2023-03-17T11:30:45.715Z" agent="5.0 (Macintosh; Intel Mac OS X 10_15_7) AppleWebKit/537.36 (KHTML, like Gecko) Chrome/111.0.0.0 Safari/537.36" etag="Ks8q6NhbyZnQUqP2hnDP" version="21.0.6" type="github">
  <diagram name="第 1 页" id="hG8O2Ma3Fp_Z3jD3DdpA">
    <mxGraphModel dx="1356" dy="785" grid="0" gridSize="10" guides="1" tooltips="1" connect="1" arrows="1" fold="1" page="1" pageScale="1" pageWidth="827" pageHeight="1169" math="0" shadow="0">
      <root>
        <mxCell id="0" />
        <mxCell id="1" parent="0" />
        <mxCell id="WqfHSwI7TsCzREHf_kQK-8" value="" style="edgeStyle=orthogonalEdgeStyle;rounded=0;orthogonalLoop=1;jettySize=auto;html=1;" edge="1" parent="1" source="WqfHSwI7TsCzREHf_kQK-1" target="WqfHSwI7TsCzREHf_kQK-2">
          <mxGeometry relative="1" as="geometry" />
        </mxCell>
        <mxCell id="WqfHSwI7TsCzREHf_kQK-1" value="开始" style="ellipse;whiteSpace=wrap;html=1;" vertex="1" parent="1">
          <mxGeometry x="290" y="40" width="120" height="80" as="geometry" />
        </mxCell>
        <mxCell id="WqfHSwI7TsCzREHf_kQK-9" value="" style="edgeStyle=orthogonalEdgeStyle;rounded=0;orthogonalLoop=1;jettySize=auto;html=1;" edge="1" parent="1" source="WqfHSwI7TsCzREHf_kQK-2" target="WqfHSwI7TsCzREHf_kQK-3">
          <mxGeometry relative="1" as="geometry" />
        </mxCell>
        <mxCell id="WqfHSwI7TsCzREHf_kQK-2" value="注册" style="rounded=1;whiteSpace=wrap;html=1;" vertex="1" parent="1">
          <mxGeometry x="290" y="160" width="120" height="60" as="geometry" />
        </mxCell>
        <mxCell id="WqfHSwI7TsCzREHf_kQK-10" value="" style="edgeStyle=orthogonalEdgeStyle;rounded=0;orthogonalLoop=1;jettySize=auto;html=1;" edge="1" parent="1" source="WqfHSwI7TsCzREHf_kQK-3" target="WqfHSwI7TsCzREHf_kQK-4">
          <mxGeometry relative="1" as="geometry" />
        </mxCell>
        <mxCell id="WqfHSwI7TsCzREHf_kQK-3" value="输入账号密码以及手机号" style="rounded=1;whiteSpace=wrap;html=1;" vertex="1" parent="1">
          <mxGeometry x="290" y="270" width="120" height="60" as="geometry" />
        </mxCell>
        <mxCell id="WqfHSwI7TsCzREHf_kQK-11" value="" style="edgeStyle=orthogonalEdgeStyle;rounded=0;orthogonalLoop=1;jettySize=auto;html=1;" edge="1" parent="1" source="WqfHSwI7TsCzREHf_kQK-4" target="WqfHSwI7TsCzREHf_kQK-5">
          <mxGeometry relative="1" as="geometry" />
        </mxCell>
        <mxCell id="WqfHSwI7TsCzREHf_kQK-15" value="验证成功" style="edgeLabel;html=1;align=center;verticalAlign=middle;resizable=0;points=[];" vertex="1" connectable="0" parent="WqfHSwI7TsCzREHf_kQK-11">
          <mxGeometry x="-0.3235" y="1" relative="1" as="geometry">
            <mxPoint as="offset" />
          </mxGeometry>
        </mxCell>
        <mxCell id="WqfHSwI7TsCzREHf_kQK-13" style="edgeStyle=orthogonalEdgeStyle;rounded=0;orthogonalLoop=1;jettySize=auto;html=1;entryX=1;entryY=0.5;entryDx=0;entryDy=0;" edge="1" parent="1" source="WqfHSwI7TsCzREHf_kQK-4" target="WqfHSwI7TsCzREHf_kQK-3">
          <mxGeometry relative="1" as="geometry">
            <Array as="points">
              <mxPoint x="470" y="405" />
              <mxPoint x="470" y="300" />
            </Array>
          </mxGeometry>
        </mxCell>
        <mxCell id="WqfHSwI7TsCzREHf_kQK-14" value="验证失败" style="edgeLabel;html=1;align=center;verticalAlign=middle;resizable=0;points=[];" vertex="1" connectable="0" parent="WqfHSwI7TsCzREHf_kQK-13">
          <mxGeometry x="-0.0596" y="-3" relative="1" as="geometry">
            <mxPoint as="offset" />
          </mxGeometry>
        </mxCell>
        <mxCell id="WqfHSwI7TsCzREHf_kQK-4" value="获得验证码" style="rhombus;whiteSpace=wrap;html=1;" vertex="1" parent="1">
          <mxGeometry x="280" y="380" width="140" height="50" as="geometry" />
        </mxCell>
        <mxCell id="WqfHSwI7TsCzREHf_kQK-12" value="" style="edgeStyle=orthogonalEdgeStyle;rounded=0;orthogonalLoop=1;jettySize=auto;html=1;" edge="1" parent="1" source="WqfHSwI7TsCzREHf_kQK-5" target="WqfHSwI7TsCzREHf_kQK-6">
          <mxGeometry relative="1" as="geometry" />
        </mxCell>
        <mxCell id="WqfHSwI7TsCzREHf_kQK-5" value="注册成功" style="rounded=1;whiteSpace=wrap;html=1;" vertex="1" parent="1">
          <mxGeometry x="290" y="480" width="120" height="60" as="geometry" />
        </mxCell>
        <mxCell id="WqfHSwI7TsCzREHf_kQK-6" value="结束" style="rounded=1;whiteSpace=wrap;html=1;" vertex="1" parent="1">
          <mxGeometry x="290" y="585" width="120" height="60" as="geometry" />
        </mxCell>
      </root>
    </mxGraphModel>
  </diagram>
</mxfile>
